<svg width="20" height="20" viewBox="0 0 20 20" fill="none" xmlns="http://www.w3.org/2000/svg">
<g clip-path="url(#clip0_8720_589)">
<path d="M9.16675 9.16663V4.99996C9.16675 4.53972 9.53984 4.16663 10.0001 4.16663C10.4603 4.16663 10.8334 4.53972 10.8334 4.99996V9.16663H15.0001C15.4603 9.16663 15.8334 9.53972 15.8334 9.99996C15.8334 10.4602 15.4603 10.8333 15.0001 10.8333H10.8334V15C10.8334 15.4602 10.4603 15.8333 10.0001 15.8333C9.53984 15.8333 9.16675 15.4602 9.16675 15V10.8333H5.00008C4.53984 10.8333 4.16675 10.4602 4.16675 9.99996C4.16675 9.53972 4.53984 9.16663 5.00008 9.16663H9.16675Z" fill="white"/>
</g>
<defs>
<clipPath id="clip0_8720_589">
<rect width="20" height="20" fill="white"/>
</clipPath>
</defs>
</svg>
