<svg width="30" height="30" viewBox="0 0 30 30" fill="none" xmlns="http://www.w3.org/2000/svg">
<circle cx="15" cy="15" r="15" fill="#D9D9D9"/>
<path d="M10.03 22.6649C9.47774 22.6649 9.02161 22.2142 9.11233 21.6694C9.31851 20.4314 9.9059 19.2789 10.805 18.3799C11.9414 17.2434 13.4828 16.6049 15.09 16.6049C16.6972 16.6049 18.2386 17.2434 19.3751 18.3799C20.2742 19.2789 20.8616 20.4314 21.0677 21.6694C21.1585 22.2142 20.7023 22.6649 20.15 22.6649H10.03ZM15.09 15.8474C12.5789 15.8474 10.545 13.8136 10.545 11.3024C10.545 8.79133 12.5789 6.75745 15.09 6.75745C17.6011 6.75745 19.635 8.79133 19.635 11.3024C19.635 13.8136 17.6011 15.8474 15.09 15.8474Z" fill="#ABABAB"/>
</svg>
