<svg width="90" height="90" viewBox="0 0 90 90" fill="none" xmlns="http://www.w3.org/2000/svg">
<g clip-path="url(#clip0_3_6230)">
<path d="M18.105 78.75L18.03 78.825L17.9513 78.75H11.22C10.2331 78.749 9.28686 78.3562 8.58934 77.658C7.89181 76.9598 7.5 76.0132 7.5 75.0263V14.9738C7.50686 13.9889 7.90088 13.0463 8.59692 12.3496C9.29297 11.6528 10.2352 11.2579 11.22 11.25H78.78C80.835 11.25 82.5 12.9188 82.5 14.9738V75.0263C82.4931 76.0111 82.0991 76.9537 81.4031 77.6504C80.707 78.3472 79.7648 78.7421 78.78 78.75H18.105ZM75 56.25V18.75H15V71.25L52.5 33.75L75 56.25ZM75 66.855L52.5 44.355L25.605 71.25H75V66.855ZM30 41.25C28.0109 41.25 26.1032 40.4598 24.6967 39.0533C23.2902 37.6468 22.5 35.7391 22.5 33.75C22.5 31.7609 23.2902 29.8532 24.6967 28.4467C26.1032 27.0402 28.0109 26.25 30 26.25C31.9891 26.25 33.8968 27.0402 35.3033 28.4467C36.7098 29.8532 37.5 31.7609 37.5 33.75C37.5 35.7391 36.7098 37.6468 35.3033 39.0533C33.8968 40.4598 31.9891 41.25 30 41.25Z" fill="#979797"/>
</g>
<defs>
<clipPath id="clip0_3_6230">
<rect width="90" height="90" fill="white"/>
</clipPath>
</defs>
</svg>
