<svg width="16" height="18" viewBox="0 0 16 18" fill="none" xmlns="http://www.w3.org/2000/svg">
<path d="M0.928467 4.28572H15.0713M4.85704 4.28572V2.71429C4.85704 2.29752 5.0226 1.89782 5.3173 1.60312C5.612 1.30842 6.0117 1.14286 6.42847 1.14286H9.57133C9.98809 1.14286 10.3878 1.30842 10.6825 1.60312C10.9772 1.89782 11.1428 2.29752 11.1428 2.71429V4.28572M13.4999 4.28572V15.2857C13.4999 15.7025 13.3343 16.1022 13.0396 16.3969C12.7449 16.6916 12.3452 16.8571 11.9285 16.8571H4.07132C3.65456 16.8571 3.25486 16.6916 2.96016 16.3969C2.66546 16.1022 2.4999 15.7025 2.4999 15.2857V4.28572H13.4999Z" stroke="#70757A" stroke-linecap="round" stroke-linejoin="round"/>
</svg>
