<svg width="20" height="20" viewBox="0 0 20 20" fill="none" xmlns="http://www.w3.org/2000/svg">
<g clip-path="url(#clip0_8583_607)">
<path d="M14.1666 2.5C14.6269 2.5 15 2.8731 15 3.33333C15 3.79357 14.6269 4.16667 14.1666 4.16667V9.16667L15.8333 11.6667V12.3333C15.8333 12.8856 15.3856 13.3333 14.8333 13.3333H10.8333V18.3333C10.8333 18.7936 10.4602 19.1667 9.99996 19.1667C9.53972 19.1667 9.16663 18.7936 9.16663 18.3333V13.3333H5.16663C4.61434 13.3333 4.16663 12.8856 4.16663 12.3333V11.6667L5.83329 9.16667V4.16667C5.37306 4.16667 4.99996 3.79357 4.99996 3.33333C4.99996 2.8731 5.37306 2.5 5.83329 2.5H14.1666ZM7.49996 4.16667V9.67167L6.16996 11.6667H13.83L12.5 9.67167V4.16667H7.49996Z" fill="white"/>
</g>
<defs>
<clipPath id="clip0_8583_607">
<rect width="20" height="20" fill="white"/>
</clipPath>
</defs>
</svg>
