<svg width="229" height="72" viewBox="0 0 229 72" fill="none" xmlns="http://www.w3.org/2000/svg">
<g filter="url(#filter0_d_3_2056)">
<rect x="8" y="6" width="213" height="56" rx="10" fill="#DDE9F9"/>
<g clip-path="url(#clip0_3_2056)">
<path d="M32 41C32 40.4477 32.4477 40 33 40C33.5523 40 34 40.4477 34 41V42H46V26H34V27C34 27.5523 33.5523 28 33 28C32.4477 28 32 27.5523 32 27V25C32 24.7348 32.1054 24.4804 32.2929 24.2929C32.4804 24.1054 32.7348 24 33 24H47C47.2652 24 47.5196 24.1054 47.7071 24.2929C47.8946 24.4804 48 24.7348 48 25V43C48 43.2652 47.8946 43.5196 47.7071 43.7071C47.5196 43.8946 47.2652 44 47 44H33C32.7348 44 32.4804 43.8946 32.2929 43.7071C32.1054 43.5196 32 43.2652 32 43V41ZM34 33H40C40.5523 33 41 33.4477 41 34C41 34.5523 40.5523 35 40 35H34V35.9194C34 36.7579 33.0301 37.2241 32.3753 36.7002L29.9761 34.7809C29.4757 34.3805 29.4757 33.6195 29.9761 33.2191L32.3753 31.2998C33.0301 30.7759 34 31.2421 34 32.0806V33Z" fill="#3772FF"/>
</g>
<path d="M63.6875 28.1504H67.5107C69.1689 28.1504 70.4199 28.3906 71.2637 28.8711C72.1074 29.3516 72.5293 30.1807 72.5293 31.3584C72.5293 31.8506 72.4414 32.2959 72.2656 32.6943C72.0957 33.0869 71.8467 33.4121 71.5186 33.6699C71.1904 33.9219 70.7861 34.0918 70.3057 34.1797V34.2676C70.8037 34.3555 71.2461 34.5107 71.6328 34.7334C72.0254 34.9561 72.333 35.2754 72.5557 35.6914C72.7842 36.1074 72.8984 36.6465 72.8984 37.3086C72.8984 38.0938 72.7109 38.7617 72.3359 39.3125C71.9668 39.8633 71.4365 40.2822 70.7451 40.5693C70.0596 40.8564 69.2451 41 68.3018 41H63.6875V28.1504ZM65.7969 33.4502H67.8184C68.7734 33.4502 69.4355 33.2949 69.8047 32.9844C70.1738 32.6738 70.3584 32.2197 70.3584 31.6221C70.3584 31.0127 70.1387 30.5732 69.6992 30.3037C69.2656 30.0342 68.5742 29.8994 67.625 29.8994H65.7969V33.4502ZM65.7969 35.1553V39.2334H68.0205C69.0049 39.2334 69.6963 39.043 70.0947 38.6621C70.4932 38.2812 70.6924 37.7656 70.6924 37.1152C70.6924 36.7168 70.6016 36.3711 70.4199 36.0781C70.2441 35.7852 69.9541 35.5596 69.5498 35.4014C69.1455 35.2373 68.6006 35.1553 67.915 35.1553H65.7969ZM75.3418 41V31.2705H77.416V35.1553H79.376C80.29 35.1553 81.043 35.2607 81.6348 35.4717C82.2266 35.6768 82.666 35.9873 82.9531 36.4033C83.2402 36.8193 83.3838 37.3408 83.3838 37.9678C83.3838 38.583 83.2461 39.1191 82.9707 39.5762C82.6953 40.0273 82.2646 40.3789 81.6787 40.6309C81.0928 40.877 80.3252 41 79.376 41H75.3418ZM77.416 39.4795H79.2354C79.8564 39.4795 80.3574 39.3682 80.7383 39.1455C81.125 38.917 81.3184 38.542 81.3184 38.0205C81.3184 37.5342 81.1396 37.1914 80.7822 36.9922C80.4307 36.7871 79.915 36.6846 79.2354 36.6846H77.416V39.4795ZM84.8867 41V31.2705H86.9609V41H84.8867ZM91.9004 31.2705V36.2363C91.9004 36.3945 91.8945 36.5967 91.8828 36.8428C91.877 37.083 91.8652 37.335 91.8477 37.5986C91.8301 37.8564 91.8125 38.0938 91.7949 38.3105C91.7773 38.5273 91.7627 38.6885 91.751 38.7939L96.6465 31.2705H99.1602V41H97.1826V36.0869C97.1826 35.8291 97.1885 35.5303 97.2002 35.1904C97.2178 34.8506 97.2354 34.5225 97.2529 34.2061C97.2764 33.8896 97.291 33.6494 97.2969 33.4854L92.4189 41H89.9141V31.2705H91.9004ZM98.4307 27.1748C98.3721 27.7783 98.208 28.2998 97.9385 28.7393C97.6748 29.1729 97.2734 29.5068 96.7344 29.7412C96.1953 29.9756 95.4863 30.0928 94.6074 30.0928C93.6992 30.0928 92.9814 29.9814 92.4541 29.7588C91.9268 29.5303 91.5459 29.1992 91.3115 28.7656C91.0771 28.3262 90.9365 27.7959 90.8896 27.1748H92.7705C92.8291 27.8252 92.999 28.2646 93.2803 28.4932C93.5615 28.7158 94.0156 28.8271 94.6426 28.8271C95.1816 28.8271 95.6123 28.707 95.9346 28.4668C96.2627 28.2266 96.459 27.7959 96.5234 27.1748H98.4307ZM109.479 32.8965H106.279V41H104.223V32.8965H101.041V31.2705H109.479V32.8965ZM113.346 31.2705V36.2363C113.346 36.3945 113.34 36.5967 113.328 36.8428C113.322 37.083 113.311 37.335 113.293 37.5986C113.275 37.8564 113.258 38.0938 113.24 38.3105C113.223 38.5273 113.208 38.6885 113.196 38.7939L118.092 31.2705H120.605V41H118.628V36.0869C118.628 35.8291 118.634 35.5303 118.646 35.1904C118.663 34.8506 118.681 34.5225 118.698 34.2061C118.722 33.8896 118.736 33.6494 118.742 33.4854L113.864 41H111.359V31.2705H113.346Z" fill="#3772FF"/>
<rect x="8.5" y="6.5" width="212" height="55" rx="9.5" stroke="#3772FF"/>
</g>
<defs>
<filter id="filter0_d_3_2056" x="0" y="0" width="229" height="72" filterUnits="userSpaceOnUse" color-interpolation-filters="sRGB">
<feFlood flood-opacity="0" result="BackgroundImageFix"/>
<feColorMatrix in="SourceAlpha" type="matrix" values="0 0 0 0 0 0 0 0 0 0 0 0 0 0 0 0 0 0 127 0" result="hardAlpha"/>
<feOffset dy="2"/>
<feGaussianBlur stdDeviation="4"/>
<feColorMatrix type="matrix" values="0 0 0 0 0 0 0 0 0 0 0 0 0 0 0 0 0 0 0.16 0"/>
<feBlend mode="normal" in2="BackgroundImageFix" result="effect1_dropShadow_3_2056"/>
<feBlend mode="normal" in="SourceGraphic" in2="effect1_dropShadow_3_2056" result="shape"/>
</filter>
<clipPath id="clip0_3_2056">
<rect width="24" height="24" fill="white" transform="translate(28 22)"/>
</clipPath>
</defs>
</svg>
