<svg width="12" height="12" viewBox="0 0 12 12" fill="none" xmlns="http://www.w3.org/2000/svg">
<path d="M5.16675 5.16667V1.00001C5.16675 0.539768 5.53984 0.166672 6.00008 0.166672C6.46032 0.166672 6.83342 0.539768 6.83342 1.00001V5.16667H11.0001C11.4603 5.16667 11.8334 5.53977 11.8334 6.00001C11.8334 6.46024 11.4603 6.83334 11.0001 6.83334H6.83342V11C6.83342 11.4602 6.46032 11.8333 6.00008 11.8333C5.53984 11.8333 5.16675 11.4602 5.16675 11V6.83334H1.00008C0.539844 6.83334 0.166748 6.46024 0.166748 6.00001C0.166748 5.53977 0.539844 5.16667 1.00008 5.16667H5.16675Z" fill="white"/>
</svg>
