<svg width="22" height="24" viewBox="0 0 22 24" fill="none" xmlns="http://www.w3.org/2000/svg">
<path d="M21.8332 18.6667C21.8332 19.219 21.3855 19.6667 20.8332 19.6667H1.1665C0.614218 19.6667 0.166504 19.219 0.166504 18.6667V18.5001C0.166504 17.9478 0.614219 17.5001 1.1665 17.5001H1.24984V9.95033C1.24984 4.54666 5.61567 0.166748 10.9998 0.166748C16.384 0.166748 20.7498 4.54666 20.7498 9.95033V17.5001H20.8332C21.3855 17.5001 21.8332 17.9478 21.8332 18.5001V18.6667ZM3.4165 17.5001H18.5832V9.95033C18.5832 5.74375 15.188 2.33341 10.9998 2.33341C6.81167 2.33341 3.4165 5.74375 3.4165 9.95033V17.5001ZM8.2915 20.7501H13.7082C13.7082 21.4684 13.4228 22.1573 12.9149 22.6652C12.407 23.1731 11.7181 23.4584 10.9998 23.4584C10.2815 23.4584 9.59267 23.1731 9.08476 22.6652C8.57685 22.1573 8.2915 21.4684 8.2915 20.7501Z" fill="#020202"/>
</svg>
