<svg width="16" height="16" viewBox="0 0 16 16" fill="none" xmlns="http://www.w3.org/2000/svg">
<path d="M0.5 14.6667C0.5 14.2064 0.873096 13.8333 1.33333 13.8333H14.6667C15.1269 13.8333 15.5 14.2064 15.5 14.6667C15.5 15.1269 15.1269 15.5 14.6667 15.5H1.33333C0.873096 15.5 0.5 15.1269 0.5 14.6667ZM8.83333 2.85667V11.3333C8.83333 11.7936 8.46024 12.1667 8 12.1667C7.53976 12.1667 7.16667 11.7936 7.16667 11.3333V2.85667L2.69666 7.32741C2.37128 7.65284 1.84369 7.65287 1.51829 7.32746C1.19292 7.00209 1.19291 6.47457 1.51826 6.14918L7.29289 0.373863C7.68341 -0.0167005 8.31661 -0.0167204 8.70715 0.37382L14.4816 6.14829C14.807 6.4737 14.807 7.00131 14.4816 7.32672C14.1562 7.6521 13.6287 7.65214 13.3033 7.32682L8.83333 2.85834V2.85667Z" fill="#3772FF"/>
</svg>
