<svg width="22" height="22" viewBox="0 0 22 22" fill="none" xmlns="http://www.w3.org/2000/svg">
<path d="M16.882 18.297C15.1232 19.4126 13.0827 20.0033 11 20C5.608 20 1.122 16.12 0.181 11C0.611029 8.67072 1.78263 6.5429 3.521 4.93401L1.09978 2.51511C0.708941 2.12464 0.709004 1.491 1.09966 1.10034C1.49019 0.709813 2.12358 0.709607 2.51411 1.10015L20.8987 19.4857C21.2893 19.8763 21.2891 20.5097 20.8983 20.9002C20.5077 21.2905 19.8746 21.2905 19.4841 20.8999L16.882 18.297ZM4.935 6.35001C3.576 7.5856 2.62932 9.20879 2.223 11C2.53529 12.3665 3.16226 13.6411 4.054 14.7226C4.94574 15.804 6.07763 16.6624 7.35955 17.2293C8.64148 17.7962 10.038 18.0561 11.4381 17.9881C12.8381 17.9202 14.203 17.5264 15.424 16.838L13.396 14.81C12.5327 15.3538 11.5102 15.5881 10.4962 15.4744C9.48228 15.3608 8.53704 14.9059 7.81557 14.1844C7.0941 13.463 6.63923 12.5177 6.52556 11.5038C6.4119 10.4898 6.64618 9.46732 7.19 8.60401L4.935 6.35001ZM11.914 13.328L8.672 10.086C8.49406 10.5389 8.45219 11.034 8.55151 11.5104C8.65082 11.9867 8.88702 12.4238 9.23112 12.7679C9.57522 13.112 10.0123 13.3482 10.4887 13.4475C10.965 13.5468 11.4601 13.5049 11.913 13.327L11.914 13.328ZM20.449 14.6361C20.1369 15.1581 19.4223 15.2076 18.9921 14.7777L18.9703 14.7559C18.6267 14.4125 18.5851 13.8746 18.8256 13.4525C19.2612 12.6878 19.5823 11.8615 19.777 11C19.5052 9.80973 18.9943 8.68715 18.2751 7.7005C17.556 6.71385 16.6438 5.88373 15.5939 5.26061C14.544 4.63749 13.3783 4.23437 12.1677 4.07577C11.1512 3.94259 10.1209 3.98415 9.12098 4.19724C8.76692 4.2727 8.39345 4.17946 8.13747 3.92347L8.0535 3.83951C7.544 3.33001 7.72841 2.47013 8.42914 2.30236C9.25419 2.10482 10.1153 2.00001 11 2.00001C16.392 2.00001 20.878 5.88001 21.819 11C21.5822 12.287 21.1172 13.5181 20.449 14.6361ZM10.723 6.50801C11.3595 6.46867 11.9971 6.56507 12.5935 6.79082C13.19 7.01657 13.7316 7.36652 14.1825 7.81746C14.6335 8.2684 14.9834 8.81003 15.2092 9.40646C15.4349 10.0029 15.5313 10.6405 15.492 11.277L10.723 6.50801Z" fill="black"/>
</svg>
